<svg height="511pt" viewBox="0 1 511 511.99966" width="511pt" xmlns="http://www.w3.org/2000/svg"><path d="m512.140625 255.996094c0-38.226563-8.339844-75.171875-24.144531-108.761719 32.945312-33.921875 32.664062-88.308594-.886719-121.855469-33.542969-33.546875-87.929687-33.828125-121.855469-.886718-33.589844-15.804688-70.53125-24.144532-108.757812-24.144532-38.226563 0-75.171875 8.339844-108.761719 24.148438-33.921875-32.945313-88.304687-32.664063-121.855469.882812-33.546875 33.546875-33.828125 87.933594-.882812 121.855469-15.808594 33.589844-24.148438 70.535156-24.148438 108.761719 0 38.222656 8.339844 75.167968 24.148438 108.757812-32.945313 33.921875-32.664063 88.308594.882812 121.855469 16.929688 16.929687 39.160156 25.390625 61.394532 25.390625 21.832031-.003906 43.65625-8.183594 60.460937-24.503906 33.59375 15.804687 70.535156 24.144531 108.761719 24.144531 38.226562 0 75.167968-8.339844 108.757812-24.144531 16.804688 16.320312 38.628906 24.503906 60.460938 24.503906 22.234375 0 44.46875-8.464844 61.394531-25.390625 33.550781-33.546875 33.832031-87.933594.886719-121.855469 15.804687-33.589844 24.144531-70.535156 24.144531-108.757812zm-202.421875 219.347656v-93.085938c32.824219-13.886718 59.152344-40.214843 73.039062-73.039062h93.082032c-9.609375 39.925781-30.019532 76.554688-59.792969 106.328125s-66.402344 50.183594-106.328125 59.796875zm-212.777344-59.796875c-29.769531-29.773437-50.183594-66.40625-59.792968-106.328125h93.082031c13.890625 32.824219 40.21875 59.152344 73.039062 73.039062v93.082032c-39.921875-9.609375-76.554687-30.019532-106.328125-59.792969zm-66.085937-159.550781c0-7.808594.402343-15.554688 1.179687-23.222656h89.414063c-1.296875 7.550781-1.980469 15.308593-1.980469 23.222656 0 7.910156.683594 15.667968 1.980469 23.21875h-89.414063c-.777344-7.664063-1.179687-15.410156-1.179687-23.21875zm66.085937-159.554688c29.773438-29.769531 66.40625-50.183594 106.328125-59.792968v93.082031c-32.820312 13.890625-59.148437 40.214843-73.039062 73.039062h-93.082031c9.609374-39.921875 30.023437-76.554687 59.792968-106.328125zm52.535156 159.554688c0-59.011719 48.007813-107.019532 107.019532-107.019532 59.007812 0 107.019531 48.007813 107.019531 107.019532 0 59.007812-48.011719 107.019531-107.019531 107.019531-59.011719 0-107.019532-48.011719-107.019532-107.019531zm266.570313-159.554688c29.773437 29.773438 50.1875 66.40625 59.796875 106.328125h-93.085938c-13.886718-32.824219-40.214843-59.148437-73.035156-73.039062v-93.082031c39.921875 9.609374 76.550782 30.023437 106.324219 59.792968zm66.089844 159.554688c0 7.808594-.402344 15.554687-1.183594 23.21875h-89.410156c1.292969-7.550782 1.976562-15.308594 1.976562-23.21875 0-7.914063-.683593-15.671875-1.976562-23.222656h89.410156c.78125 7.667968 1.183594 15.414062 1.183594 23.222656zm-16.242188-209.398438c19.679688 19.679688 21.863281 50.320313 6.570313 72.449219-9.980469-15.671875-21.746094-30.367187-35.199219-43.820313-13.457031-13.457031-28.152344-25.222656-43.820313-35.203124 22.128907-15.289063 52.765626-13.109376 72.449219 6.574218zm-186.179687-15.0625v89.414063c-7.550782-1.296875-15.304688-1.980469-23.21875-1.980469-7.914063 0-15.671875.683594-23.222656 1.980469v-89.414063c7.667968-.777344 15.414062-1.179687 23.222656-1.179687s15.554687.402343 23.21875 1.179687zm-232.617188 15.0625c19.679688-19.683594 50.320313-21.863281 72.449219-6.574218-15.671875 9.980468-30.363281 21.746093-43.820313 35.203124-13.457031 13.453126-25.222656 28.148438-35.203124 43.820313-15.289063-22.128906-13.109376-52.769531 6.574218-72.449219zm0 418.796875c-19.683594-19.683593-21.863281-50.324219-6.574218-72.453125 9.980468 15.671875 21.746093 30.367188 35.203124 43.820313 13.457032 13.457031 28.148438 25.222656 43.820313 35.203125-22.128906 15.289062-52.769531 13.109375-72.449219-6.570313zm186.175782 15.058594v-89.410156c7.550781 1.292969 15.308593 1.976562 23.222656 1.976562 7.914062 0 15.667968-.683593 23.21875-1.976562v89.410156c-7.664063.777344-15.410156 1.183594-23.21875 1.183594s-15.554688-.402344-23.222656-1.183594zm232.621093-15.058594c-19.683593 19.679688-50.324219 21.859375-72.449219 6.570313 15.667969-9.980469 30.363282-21.746094 43.820313-35.203125 13.453125-13.453125 25.21875-28.148438 35.199219-43.820313 15.289062 22.128906 13.109375 52.769532-6.570313 72.453125zm0 0"/></svg>