<svg height="512pt" viewBox="0 0 512 512" width="512pt" xmlns="http://www.w3.org/2000/svg"><path d="m0 376c0 74.640625 61.378906 136 136 136 74.4375 0 135-61.007812 135-136 0-52.179688-29.761719-97.539062-73.199219-120 43.4375-22.460938 73.199219-67.820312 73.199219-120 0-74.992188-60.5625-136-135-136-74.636719 0-136 61.378906-136 136 0 52.179688 29.980469 97.539062 73.738281 120-43.757812 22.460938-73.738281 67.820312-73.738281 120zm30-240c0-58.449219 47.550781-106 106-106 57.898438 0 105 47.550781 105 106 0 57.898438-47.101562 105-105 105-58.449219 0-106-47.101562-106-105zm106 135c57.898438 0 105 47.101562 105 105 0 58.449219-47.101562 106-105 106-58.449219 0-106-47.550781-106-106 0-57.898438 47.550781-105 106-105zm0 0"/><path d="m97.027344 398.476562-25.957032 15.042969c13.398438 23.121094 38.277344 37.480469 64.929688 37.480469s51.53125-14.359375 64.929688-37.476562l-25.957032-15.042969c-8.050781 13.890625-22.984375 22.519531-38.972656 22.519531s-30.921875-8.628906-38.972656-22.523438zm0 0"/><path d="m61 331h60v30h-60zm0 0"/><path d="m151 331h60v30h-60zm0 0"/><path d="m61 91h60v30h-60zm0 0"/><path d="m151 91h60v30h-60zm0 0"/><path d="m136 151c-26.691406 0-51.582031 14.363281-64.957031 37.488281l25.96875 15.023438c8.03125-13.886719 22.972656-22.511719 38.988281-22.511719s30.957031 8.625 38.988281 22.511719l25.96875-15.023438c-13.375-23.125-38.265625-37.488281-64.957031-37.488281zm0 0"/><path d="m461.605469 356.605469-21.210938-21.210938-49.394531 49.390625-19.394531-19.390625-21.210938 21.210938 40.605469 40.609375zm0 0"/><path d="m512 31h-211v210h211zm-30 180h-151v-150h151zm0 0"/><path d="m512 271h-211v210h211zm-30 180h-151v-150h151zm0 0"/><path d="m386.605469 176.605469 19.394531-19.390625 19.394531 19.390625 21.210938-21.210938-19.390625-19.394531 19.390625-19.394531-21.210938-21.210938-19.394531 19.390625-19.394531-19.390625-21.210938 21.210938 19.390625 19.394531-19.390625 19.394531zm0 0"/></svg>